<svg width="129" height="52" viewBox="0 0 128.272 52" fill="none" xmlns="http://www.w3.org/2000/svg">
  <g fill="white">
    <path transform="translate(0 32.8848)" d="M0 5.6051C0 4.72727 0.161931 3.94313 0.488635 3.25C0.8125 2.55679 1.25852 1.96871 1.83238 1.48576C2.40341 1.0028 3.07954 0.636324 3.86079 0.380683C4.64204 0.127822 5.49714 0 6.42897 0C7.36078 0 8.21871 0.127822 9.00847 0.380683C9.79824 0.636324 10.4772 1.0028 11.0483 1.48576C11.6193 1.96871 12.0625 2.55679 12.3778 3.25C12.6932 3.94313 12.8523 4.73012 12.8523 5.6051V13.5824H9.84942V6.36932C9.84942 5.1761 9.55966 4.26701 8.98007 3.64489C8.40056 3.02269 7.55112 2.71024 6.42613 2.71024C5.30112 2.71024 4.42897 3.02269 3.85795 3.64489C3.28693 4.26986 3.00283 5.1761 3.00283 6.36932V13.5824H0V5.6051Z"/>
    <path transform="translate(14.1997 32.8744)" d="M7.24145 11.2955C7.83802 11.2955 8.39199 11.1875 8.90057 10.9659C9.40907 10.7472 9.84371 10.4404 10.2046 10.0455C10.5653 9.65059 10.8437 9.19318 11.0483 8.67619C11.25 8.15912 11.3494 7.59373 11.3494 6.9801C11.3494 6.36647 11.25 5.78981 11.0483 5.25568C10.8466 4.71878 10.5653 4.25851 10.2046 3.8722C9.84371 3.4858 9.40907 3.1847 8.90057 2.9631C8.38921 2.74435 7.83802 2.63351 7.24145 2.63351C6.64488 2.63351 6.071 2.74435 5.57099 2.9631C5.07098 3.18184 4.6392 3.4858 4.28121 3.8722C3.92044 4.25851 3.63917 4.71878 3.43749 5.25568C3.2358 5.78981 3.13353 6.36647 3.13353 6.9801C3.13353 7.59373 3.23294 8.15912 3.43749 8.67619C3.63917 9.19604 3.92044 9.65059 4.28121 10.0455C4.6392 10.4404 5.07098 10.7472 5.57099 10.9659C6.071 11.1847 6.62782 11.2955 7.24145 11.2955ZM7.24145 0C8.25853 0 9.21302 0.176138 10.0994 0.52556C10.9858 0.877837 11.7528 1.36365 12.4034 1.98577C13.054 2.60797 13.5625 3.34656 13.9318 4.19885C14.3011 5.05114 14.4829 5.97444 14.4829 6.97732C14.4829 7.98012 14.2983 8.87787 13.9318 9.72731C13.5625 10.5796 13.054 11.3153 12.4034 11.9375C11.7528 12.5597 10.9858 13.0512 10.0994 13.4119C9.21302 13.7728 8.26131 13.9517 7.24145 13.9517C6.22159 13.9517 5.26989 13.7728 4.38634 13.4119C3.50001 13.054 2.73293 12.5597 2.08241 11.9375C1.4318 11.3153 0.923301 10.5767 0.553966 9.72731C0.184631 8.87502 0 7.96021 0 6.97732C0 5.99435 0.184631 5.05114 0.553966 4.19885C0.923301 3.34656 1.4318 2.61082 2.08241 1.98577C2.73008 1.36365 3.50001 0.874982 4.38634 0.52556C5.27274 0.176138 6.22445 0 7.24145 0Z"/>
    <path transform="translate(30.0285 32.8744)" d="M0 5.0824C0 3.46875 0.494376 2.21594 1.48869 1.32953C2.48015 0.443202 3.85228 0 5.60796 0C6.71311 0 7.61364 0.153369 8.30685 0.460184C8.99998 0.767075 9.34663 1.23583 9.34663 1.8693C9.34663 2.16762 9.26419 2.45738 9.09662 2.73864C8.92897 3.01991 8.79266 3.19605 8.68753 3.2642C8.38921 3.12503 8.01987 2.9915 7.58238 2.86932C7.14489 2.74713 6.64202 2.68469 6.08242 2.68469C4.02842 2.68469 3.00285 3.77271 3.00285 5.94889V13.5824H0V5.07954"/>
    <path transform="translate(39.2128 27.0608)" d="M11.2415 12.7955C11.2415 12.1989 11.1392 11.6364 10.9374 11.1108C10.7357 10.5852 10.4602 10.1278 10.1079 9.74144C9.75564 9.35512 9.33235 9.05394 8.82948 8.83241C8.32954 8.61359 7.78121 8.50283 7.18464 8.50283C6.58807 8.50283 6.01705 8.61359 5.52553 8.83241C5.03408 9.05394 4.60793 9.35226 4.24994 9.72723C3.88918 10.1051 3.61362 10.5568 3.42043 11.0824C3.22723 11.608 3.13067 12.179 3.13067 12.7926C3.13067 13.4062 3.22723 13.9716 3.42043 14.4886C3.61362 15.0085 3.88918 15.4545 4.24994 15.8324C4.61079 16.2102 5.03694 16.5085 5.52553 16.7273C6.01705 16.9461 6.57101 17.0568 7.18464 17.0568C7.79827 17.0568 8.32954 16.9517 8.82948 16.7415C9.32949 16.5313 9.75564 16.2415 10.1079 15.8722C10.4602 15.5028 10.7357 15.0569 10.9374 14.5284C11.1392 14.0029 11.2415 13.4233 11.2415 12.7897V12.7955ZM11.2415 1.39483C11.2415 0.920446 11.3778 0.571024 11.6506 0.340856C11.9233 0.113619 12.3124 0 12.821 0C13.1363 0 13.4261 0.0397519 13.6903 0.119255C13.9545 0.198833 14.1278 0.255643 14.2187 0.289759V12.1648C14.2187 13.4461 14.0369 14.5597 13.6789 15.5085C13.3182 16.4574 12.8238 17.2472 12.1903 17.8779C11.5596 18.5085 10.8125 18.983 9.95169 19.3012C9.09369 19.6165 8.1534 19.7756 7.13347 19.7756C6.11361 19.7756 5.1477 19.5994 4.27835 19.25C3.40908 18.9006 2.65906 18.4176 2.02837 17.8011C1.39483 17.1875 0.900531 16.4489 0.539762 15.5909C0.178993 14.7301 0 13.8011 0 12.8012C0 11.8011 0.170425 10.8494 0.514211 9.99715C0.855066 9.14486 1.32953 8.40905 1.93467 7.78407C2.53973 7.16195 3.25 6.679 4.06817 6.33521C4.88349 5.9915 5.77553 5.821 6.74144 5.821C7.75852 5.821 8.65334 6.0199 9.42613 6.41193C10.1988 6.80682 10.8039 7.28691 11.2415 7.84659V1.39483Z"/>
    <path transform="translate(54.6952 32.8848)" d="M7.1875 11.1051C7.78407 11.1051 8.32669 11 8.81813 10.7898C9.30958 10.5795 9.73009 10.2898 10.0824 9.92043C10.4346 9.55109 10.7102 9.1136 10.9119 8.6051C11.1136 8.0966 11.2158 7.53407 11.2158 6.92044C11.2158 6.30681 11.1136 5.76704 10.9119 5.24997C10.7102 4.7329 10.4346 4.28406 10.0824 3.90624C9.73009 3.52841 9.30958 3.2358 8.81813 3.02554C8.32669 2.81529 7.78121 2.71024 7.1875 2.71024C6.5937 2.71024 6.01419 2.821 5.51418 3.03975C5.01417 3.25849 4.58802 3.56245 4.23574 3.94885C3.88347 4.33524 3.61362 4.78122 3.42043 5.29258C3.22723 5.80108 3.13067 6.34656 3.13067 6.92329C3.13067 8.18752 3.49993 9.20167 4.23574 9.96304C4.97442 10.7273 5.95452 11.1079 7.18464 11.1079L7.1875 11.1051ZM2.1846 15.8438C2.25569 15.8779 2.40906 15.946 2.64486 16.0426C2.88066 16.1392 3.17891 16.2358 3.53975 16.3324C3.90052 16.429 4.32096 16.5114 4.80391 16.5824C5.28686 16.6535 5.80964 16.6875 6.36925 16.6875C6.96589 16.6875 7.5539 16.6222 8.13349 16.4915C8.713 16.3608 9.23007 16.1222 9.68748 15.7813C10.1448 15.4403 10.517 14.9602 10.8068 14.3466C11.0965 13.733 11.2414 12.9432 11.2414 11.9773V11.6619C10.838 12.1364 10.2528 12.5824 9.49143 13.0057C8.72721 13.4261 7.80962 13.6392 6.74144 13.6392C5.75847 13.6392 4.85508 13.4772 4.02834 13.1506C3.20454 12.8267 2.49142 12.3693 1.89484 11.7812C1.29827 11.1932 0.832372 10.4858 0.499933 9.66193C0.167569 8.83805 0 7.92331 0 6.92329C0 5.92327 0.178918 5.00282 0.539762 4.1591C0.900531 3.31816 1.39483 2.58805 2.02837 1.97442C2.65906 1.36079 3.42043 0.87784 4.30676 0.525562C5.19316 0.17614 6.16192 0 7.2159 0C8.26988 0 9.142 0.147661 9.99429 0.44884C10.8437 0.747164 11.588 1.20449 12.2187 1.81812C12.8494 2.43183 13.3409 3.21303 13.6931 4.16188C14.0426 5.1108 14.2215 6.22445 14.2215 7.50566V11.2954C14.2215 12.6818 14.0312 13.8721 13.6534 14.8637C13.2755 15.8551 12.7556 16.6648 12.088 17.2983C11.4204 17.929 10.6278 18.3921 9.70446 18.6818C8.78402 18.9716 7.77836 19.1165 6.69027 19.1165C5.97158 19.1165 5.31813 19.0767 4.72727 19C4.13919 18.9205 3.61641 18.8239 3.16193 18.7102C2.70453 18.5966 2.32948 18.483 2.02837 18.3665C1.73005 18.2528 1.51131 18.1591 1.36928 18.0909L2.1846 15.8523"/>
    <path transform="translate(70.1776 32.8744)" d="M7.23882 11.2955C7.83547 11.2955 8.38928 11.1875 8.89801 10.9659C9.40599 10.7472 9.84107 10.4404 10.2018 10.0455C10.5595 9.65059 10.8413 9.19318 11.0426 8.67619C11.244 8.15912 11.3462 7.59373 11.3462 6.9801C11.3462 6.36647 11.244 5.78981 11.0426 5.25568C10.8413 4.71878 10.5595 4.25851 10.2018 3.8722C9.84107 3.4858 9.40599 3.1847 8.89801 2.9631C8.38928 2.74435 7.83547 2.63351 7.23882 2.63351C6.64218 2.63351 6.06807 2.74435 5.56836 2.9631C5.0679 3.18184 4.63919 3.4858 4.27843 3.8722C3.91758 4.25851 3.63639 4.71878 3.43749 5.25568C3.2358 5.78981 3.13353 6.36647 3.13353 6.9801C3.13353 7.59373 3.2358 8.15912 3.43749 8.67619C3.63917 9.19604 3.91758 9.65059 4.27843 10.0455C4.63919 10.4404 5.0679 10.7472 5.56836 10.9659C6.06807 11.1847 6.62489 11.2955 7.23882 11.2955ZM7.23882 0C8.25553 0 9.20986 0.176138 10.0966 0.52556C10.9833 0.877837 11.7497 1.36365 12.4005 1.98577C13.0512 2.60797 13.56 3.34656 13.9289 4.19885C14.2956 5.05114 14.4797 5.97444 14.4797 6.97732C14.4797 7.98012 14.2956 8.87787 13.9289 9.72731C13.56 10.5796 13.0512 11.3153 12.4005 11.9375C11.7497 12.5597 10.9833 13.0512 10.0966 13.4119C9.20986 13.7728 8.25853 13.9517 7.23882 13.9517C6.21911 13.9517 5.27004 13.7728 4.38356 13.4119C3.49715 13.054 2.73015 12.5597 2.07955 11.9375C1.42902 11.3153 0.920446 10.5767 0.553966 9.72731C0.184706 8.87502 0 7.96021 0 6.97732C0 5.99435 0.184706 5.05114 0.553966 4.19885C0.923301 3.34656 1.4318 2.61082 2.07955 1.98577C2.73015 1.36365 3.49715 0.874982 4.38356 0.52556C5.27004 0.176138 6.22137 0 7.23882 0Z"/>
    <path transform="translate(86.1346 27.0608)" d="M0 1.39483C0 0.920446 0.139767 0.571024 0.420807 0.340856C0.701848 0.113619 1.09711 0 1.60509 0C1.92069 0 2.21075 0.0397519 2.4745 0.119255C2.73601 0.198833 2.91184 0.255643 3.00052 0.289759V19.4034H0V1.39483Z"/>
    <path transform="translate(90.6498 27.0608)" d="M11.2416 12.7955C11.2416 12.1989 11.1394 11.6364 10.9373 11.1108C10.7359 10.5852 10.4601 10.1278 10.1077 9.74144C9.75526 9.35512 9.3322 9.05394 8.82948 8.83241C8.32977 8.61359 7.78121 8.50283 7.18457 8.50283C6.58792 8.50283 6.01681 8.61359 5.52537 8.83241C5.03392 9.05394 4.60786 9.35226 4.24717 9.72723C3.88648 10.1051 3.61069 10.5568 3.41757 11.0824C3.22445 11.608 3.12751 12.179 3.12751 12.7926C3.12751 13.4062 3.22445 13.9716 3.41757 14.4886C3.61069 15.0085 3.88648 15.4545 4.24717 15.8324C4.60486 16.2102 5.03092 16.5085 5.52537 16.7273C6.01681 16.9461 6.56838 17.0568 7.18457 17.0568C7.80075 17.0568 8.32977 16.9517 8.82948 16.7415C9.32919 16.5313 9.75526 16.2415 10.1077 15.8722C10.4571 15.5028 10.7359 15.0569 10.9373 14.5284C11.1394 14.0029 11.2416 13.4233 11.2416 12.7897V12.7955ZM11.2416 1.39483C11.2416 0.920446 11.3776 0.571024 11.6504 0.340856C11.9232 0.113619 12.3124 0 12.8212 0C13.139 0 13.4261 0.0397519 13.6906 0.119255C13.9543 0.198833 14.1309 0.255643 14.2188 0.289759V12.1648C14.2188 13.4461 14.04 14.5597 13.6785 15.5085C13.3179 16.4574 12.8234 17.2472 12.1899 17.8779C11.5595 18.5085 10.8125 18.983 9.95138 19.3012C9.09098 19.6165 8.15318 19.7756 7.13647 19.7756C6.11902 19.7756 5.14739 19.5994 4.27797 19.25C3.4093 18.9006 2.65936 18.4176 2.02815 17.8011C1.39769 17.1875 0.900226 16.4489 0.539532 15.5909C0.178839 14.7301 0 13.8011 0 12.8012C0 11.8011 0.170575 10.8494 0.513986 9.99715C0.855142 9.14486 1.33231 8.40905 1.93422 7.78407C2.53988 7.16195 3.25 6.679 4.06833 6.33521C4.88364 5.9915 5.7756 5.821 6.7382 5.821C7.75566 5.821 8.65063 6.0199 9.42311 6.41193C10.1956 6.80682 10.8013 7.28691 11.2416 7.84659V1.39483Z"/>
    <path transform="translate(109.6597 0)" d="M0 8.88358L4.82653 0L9.65381 8.88358C9.65381 8.88358 7.03954 7.9318 4.82653 7.9318C2.21902 7.9318 0 8.88358 0 8.88358Z"/>
    <path transform="translate(100.7833 8.8868)" d="M8.88057 9.65344L0 4.82668L8.88057 0C8.88057 0 7.92925 2.6136 7.92925 4.82668C7.92925 7.43465 8.88057 9.65344 8.88057 9.65344Z"/>
    <path transform="translate(109.6597 18.5484)" d="M9.65381 0L4.82653 8.88351L0 0C0 0 2.61352 0.951706 4.82653 0.951706C7.4348 0.951706 9.65381 0 9.65381 0Z"/>
    <path transform="translate(119.3186 8.8816)" d="M0 0L8.88057 4.82668L0 9.65336C0 9.65336 0.951332 7.03976 0.951332 4.82668C0.951332 2.21872 0 0 0 0Z"/>
  </g>
</svg>
