<svg width="1707" height="692" viewBox="0 0 1707 692" fill="none" xmlns="http://www.w3.org/2000/svg">
<g clip-path="url(#clip0_4561_7065)">
<path d="M0 512.193C0 500.511 2.15493 490.076 6.50261 480.852C10.8125 471.627 16.748 463.801 24.3848 457.374C31.9838 450.947 40.9816 446.07 51.3782 442.668C61.7748 439.303 73.1543 437.602 85.5547 437.602C97.955 437.602 109.372 439.303 119.882 442.668C130.392 446.07 139.428 450.947 147.027 457.374C154.626 463.801 160.524 471.627 164.72 480.852C168.917 490.076 171.034 500.549 171.034 512.193V618.352H131.073V522.363C131.073 506.484 127.217 494.386 119.504 486.107C111.792 477.827 100.488 473.669 85.5169 473.669C70.5457 473.669 58.9393 477.827 51.3404 486.107C43.7414 494.424 39.9608 506.484 39.9608 522.363V618.352H0V512.193Z" fill="#747678"/>
<path d="M285.289 587.778C293.228 587.778 300.6 586.341 307.368 583.392C314.135 580.481 319.919 576.398 324.721 571.143C329.522 565.888 333.227 559.801 335.949 552.921C338.633 546.04 339.956 538.516 339.956 530.35C339.956 522.184 338.633 514.51 335.949 507.402C333.265 500.257 329.522 494.132 324.721 488.991C319.919 483.849 314.135 479.842 307.368 476.893C300.563 473.982 293.228 472.507 285.289 472.507C277.35 472.507 269.713 473.982 263.059 476.893C256.405 479.804 250.659 483.849 245.895 488.991C241.094 494.132 237.351 500.257 234.667 507.402C231.983 514.51 230.622 522.184 230.622 530.35C230.622 538.516 231.945 546.04 234.667 552.921C237.351 559.839 241.094 565.888 245.895 571.143C250.659 576.398 256.405 580.481 263.059 583.392C269.713 586.303 277.123 587.778 285.289 587.778ZM285.289 437.461C298.824 437.461 311.526 439.805 323.322 444.455C335.117 449.143 345.325 455.608 353.982 463.887C362.64 472.167 369.407 481.996 374.322 493.338C379.237 504.68 381.656 516.967 381.656 530.313C381.656 543.658 379.199 555.605 374.322 566.909C369.407 578.251 362.64 588.042 353.982 596.322C345.325 604.601 335.117 611.142 323.322 615.943C311.526 620.745 298.861 623.126 285.289 623.126C271.717 623.126 259.052 620.745 247.294 615.943C235.499 611.18 225.291 604.601 216.634 596.322C207.976 588.042 201.209 578.213 196.294 566.909C191.379 555.567 188.922 543.393 188.922 530.313C188.922 517.232 191.379 504.68 196.294 493.338C201.209 481.996 207.976 472.205 216.634 463.887C225.253 455.608 235.499 449.105 247.294 444.455C259.09 439.805 271.755 437.461 285.289 437.461Z" fill="#747678"/>
<path d="M399.609 505.096C399.609 483.622 406.188 466.95 419.42 455.154C432.614 443.359 450.874 437.461 474.238 437.461C488.945 437.461 500.929 439.502 510.154 443.585C519.378 447.669 523.991 453.907 523.991 462.337C523.991 466.307 522.894 470.163 520.664 473.906C518.433 477.649 516.619 479.993 515.22 480.9C511.25 479.048 506.335 477.271 500.513 475.645C494.691 474.019 487.999 473.188 480.552 473.188C453.218 473.188 439.57 487.667 439.57 516.627V618.212H399.609V505.058" fill="#747678"/>
<path d="M671.485 530.38C671.485 522.441 670.124 514.955 667.439 507.961C664.755 500.967 661.088 494.88 656.4 489.738C651.712 484.597 646.079 480.589 639.387 477.641C632.734 474.729 625.437 473.255 617.498 473.255C609.559 473.255 601.96 474.729 595.419 477.641C588.879 480.589 583.208 484.559 578.444 489.549C573.643 494.578 569.976 500.589 567.405 507.583C564.834 514.577 563.549 522.176 563.549 530.342C563.549 538.508 564.834 546.032 567.405 552.912C569.976 559.831 573.643 565.766 578.444 570.795C583.246 575.823 588.917 579.792 595.419 582.704C601.96 585.615 609.332 587.089 617.498 587.089C625.664 587.089 632.734 585.69 639.387 582.893C646.041 580.095 651.712 576.239 656.4 571.324C661.088 566.409 664.755 560.474 667.439 553.442C670.124 546.448 671.485 538.735 671.485 530.304V530.38ZM671.485 378.664C671.485 372.351 673.299 367.701 676.929 364.638C680.558 361.614 685.737 360.102 692.505 360.102C696.701 360.102 700.557 360.631 704.073 361.689C707.589 362.748 709.895 363.504 711.105 363.958V521.987C711.105 539.038 708.686 553.858 703.922 566.485C699.121 579.112 692.542 589.622 684.112 598.015C675.719 606.408 665.776 612.722 654.321 616.956C642.903 621.152 630.39 623.269 616.817 623.269C603.245 623.269 590.391 620.925 578.822 616.275C567.254 611.625 557.273 605.198 548.88 596.994C540.449 588.828 533.871 578.999 529.07 567.581C524.269 556.126 521.887 543.763 521.887 530.456C521.887 517.148 524.155 504.483 528.73 493.141C533.266 481.799 539.58 472.007 547.633 463.69C555.685 455.411 565.137 448.984 576.025 444.409C586.875 439.835 598.746 437.566 611.6 437.566C625.135 437.566 637.043 440.213 647.327 445.43C657.61 450.685 665.662 457.074 671.485 464.522V378.664Z" fill="#747678"/>
<path d="M823.497 585.385C831.436 585.385 838.657 583.987 845.197 581.189C851.737 578.391 857.333 574.535 862.021 569.62C866.709 564.705 870.376 558.883 873.06 552.116C875.744 545.349 877.105 537.863 877.105 529.697C877.105 521.531 875.744 514.348 873.06 507.467C870.376 500.586 866.709 494.613 862.021 489.585C857.333 484.557 851.737 480.663 845.197 477.865C838.657 475.067 831.398 473.669 823.497 473.669C815.595 473.669 807.883 475.143 801.229 478.054C794.575 480.965 788.904 485.01 784.216 490.152C779.528 495.294 775.937 501.229 773.366 508.034C770.795 514.801 769.51 522.06 769.51 529.735C769.51 546.559 774.424 560.055 784.216 570.187C794.046 580.357 807.089 585.423 823.459 585.423L823.497 585.385ZM756.92 648.446C757.866 648.9 759.907 649.807 763.045 651.092C766.183 652.378 770.152 653.663 774.954 654.948C779.755 656.234 785.35 657.33 791.777 658.275C798.204 659.221 805.161 659.674 812.608 659.674C820.548 659.674 828.373 658.805 836.086 657.066C843.798 655.327 850.679 652.151 856.766 647.614C862.852 643.077 867.805 636.688 871.661 628.522C875.517 620.356 877.445 609.846 877.445 596.992V592.795C872.077 599.109 864.289 605.045 854.157 610.678C843.987 616.273 831.776 619.108 817.561 619.108C804.48 619.108 792.458 616.953 781.456 612.606C770.493 608.296 761.003 602.209 753.064 594.383C745.125 586.557 738.925 577.144 734.501 566.18C730.078 555.216 727.848 543.043 727.848 529.735C727.848 516.427 730.229 504.178 735.031 492.95C739.832 481.759 746.41 472.043 754.841 463.877C763.234 455.711 773.366 449.284 785.161 444.596C796.957 439.946 809.849 437.602 823.875 437.602C837.901 437.602 849.507 439.567 860.849 443.575C872.153 447.545 882.058 453.631 890.451 461.797C898.844 469.964 905.384 480.36 910.072 492.987C914.722 505.615 917.104 520.435 917.104 537.485V587.918C917.104 606.368 914.571 622.208 909.543 635.403C904.514 648.597 897.596 659.372 888.712 667.803C879.827 676.196 869.279 682.358 856.992 686.214C844.743 690.07 831.36 691.998 816.88 691.998C807.316 691.998 798.62 691.469 790.757 690.448C782.931 689.39 775.974 688.104 769.926 686.592C763.839 685.08 758.848 683.568 754.841 682.018C750.871 680.505 747.96 679.258 746.07 678.35L756.92 648.559" fill="#747678"/>
<path d="M1030.16 587.778C1038.1 587.778 1045.47 586.341 1052.24 583.392C1059 580.481 1064.79 576.398 1069.59 571.143C1074.35 565.888 1078.1 559.801 1080.78 552.921C1083.46 546.04 1084.82 538.516 1084.82 530.35C1084.82 522.184 1083.46 514.51 1080.78 507.402C1078.1 500.257 1074.35 494.132 1069.59 488.991C1064.79 483.849 1059 479.842 1052.24 476.893C1045.47 473.982 1038.1 472.507 1030.16 472.507C1022.22 472.507 1014.58 473.982 1007.93 476.893C1001.27 479.804 995.565 483.849 990.764 488.991C985.962 494.132 982.22 500.257 979.573 507.402C976.889 514.51 975.528 522.184 975.528 530.35C975.528 538.516 976.889 546.04 979.573 552.921C982.257 559.839 985.962 565.888 990.764 571.143C995.565 576.398 1001.27 580.481 1007.93 583.392C1014.58 586.303 1021.99 587.778 1030.16 587.778ZM1030.16 437.461C1043.69 437.461 1056.39 439.805 1068.19 444.455C1079.99 449.143 1090.19 455.608 1098.85 463.887C1107.51 472.167 1114.28 481.996 1119.19 493.338C1124.07 504.68 1126.52 516.967 1126.52 530.313C1126.52 543.658 1124.07 555.605 1119.19 566.909C1114.28 578.251 1107.51 588.042 1098.85 596.322C1090.19 604.601 1079.99 611.142 1068.19 615.943C1056.39 620.745 1043.73 623.126 1030.16 623.126C1016.59 623.126 1003.96 620.745 992.163 615.943C980.367 611.18 970.16 604.601 961.502 596.322C952.845 588.042 946.077 578.213 941.2 566.909C936.286 555.567 933.828 543.393 933.828 530.313C933.828 517.232 936.286 504.68 941.2 493.338C946.115 481.996 952.882 472.205 961.502 463.887C970.16 455.608 980.367 449.105 992.163 444.455C1003.96 439.805 1016.62 437.461 1030.16 437.461Z" fill="#747678"/>
<path d="M1146.29 378.664C1146.29 372.351 1148.15 367.701 1151.89 364.638C1155.63 361.614 1160.89 360.102 1167.65 360.102C1171.85 360.102 1175.71 360.631 1179.22 361.689C1182.7 362.748 1185.04 363.504 1186.22 363.958V618.317H1146.29V378.664Z" fill="#747678"/>
<path d="M1355.89 530.38C1355.89 522.441 1354.53 514.955 1351.84 507.961C1349.16 500.967 1345.49 494.88 1340.8 489.738C1336.11 484.597 1330.48 480.589 1323.79 477.641C1317.14 474.729 1309.84 473.255 1301.9 473.255C1293.96 473.255 1286.36 474.729 1279.82 477.641C1273.28 480.589 1267.61 484.559 1262.81 489.549C1258.01 494.578 1254.34 500.589 1251.77 507.583C1249.2 514.577 1247.91 522.176 1247.91 530.342C1247.91 538.508 1249.2 546.032 1251.77 552.912C1254.34 559.831 1258.01 565.766 1262.81 570.795C1267.57 575.823 1273.24 579.792 1279.82 582.704C1286.36 585.615 1293.7 587.089 1301.9 587.089C1310.1 587.089 1317.14 585.69 1323.79 582.893C1330.44 580.095 1336.11 576.239 1340.8 571.324C1345.45 566.409 1349.16 560.474 1351.84 553.442C1354.53 546.448 1355.89 538.735 1355.89 530.304V530.38ZM1355.89 378.664C1355.89 372.351 1357.7 367.701 1361.33 364.638C1364.96 361.614 1370.14 360.102 1376.91 360.102C1381.14 360.102 1384.96 360.631 1388.48 361.689C1391.99 362.748 1394.34 363.504 1395.51 363.958V521.987C1395.51 539.038 1393.13 553.858 1388.32 566.485C1383.52 579.112 1376.94 589.622 1368.51 598.015C1360.12 606.408 1350.18 612.722 1338.72 616.956C1327.27 621.152 1314.79 623.269 1301.26 623.269C1287.72 623.269 1274.79 620.925 1263.22 616.275C1251.66 611.625 1241.68 605.198 1233.28 596.994C1224.89 588.828 1218.27 578.999 1213.47 567.581C1208.67 556.126 1206.29 543.763 1206.29 530.456C1206.29 517.148 1208.56 504.483 1213.13 493.141C1217.67 481.799 1224.02 472.007 1232.03 463.69C1240.09 455.411 1249.54 448.984 1260.43 444.409C1271.28 439.835 1283.15 437.566 1295.96 437.566C1309.5 437.566 1321.41 440.213 1331.69 445.43C1341.97 450.685 1350.03 457.074 1355.89 464.522V378.664Z" fill="#747678"/>
<path d="M1459.37 118.22L1523.6 0L1587.84 118.22C1587.84 118.22 1553.05 105.554 1523.6 105.554C1488.9 105.554 1459.37 118.22 1459.37 118.22Z" fill="#F0AB00"/>
<path d="M1459.37 118.22L1523.6 0L1587.84 118.22C1587.84 118.22 1553.05 105.554 1523.6 105.554C1488.9 105.554 1459.37 118.22 1459.37 118.22Z" fill="#F0AB00"/>
<path d="M1459.33 246.762L1341.15 182.529L1459.33 118.297C1459.33 118.297 1446.67 153.078 1446.67 182.529C1446.67 217.235 1459.33 246.762 1459.33 246.762Z" fill="#A2AD00"/>
<path d="M1587.84 246.805L1523.6 365.024L1459.37 246.805C1459.37 246.805 1494.15 259.47 1523.6 259.47C1558.31 259.47 1587.84 246.805 1587.84 246.805Z" fill="#A2AD00"/>
<path d="M1587.9 118.227L1706.08 182.459L1587.9 246.691C1587.9 246.691 1600.56 211.91 1600.56 182.459C1600.56 147.753 1587.9 118.227 1587.9 118.227Z" fill="#A2AD00"/>
</g>
<defs>
<clipPath id="clip0_4561_7065">
<rect width="1707" height="692" fill="white"/>
</clipPath>
</defs>
</svg>
