<svg preserveAspectRatio="none" width="100%" height="100%" overflow="visible" style="display: block;" viewBox="0 0 80 80" fill="none" xmlns="http://www.w3.org/2000/svg">
<g id="Group 2085662827">
<circle id="Ellipse 31" cx="40" cy="40" r="38.5" stroke="var(--stroke-0, #A3AD00)" stroke-width="3"/>
<g id="hugeicons:mining-02">
<path id="Vector" d="M45.9559 26.0165C46.662 26.4498 47.5856 26.2287 48.0189 25.5226C48.4522 24.8165 48.231 23.8929 47.525 23.4596L46.7404 24.7381L45.9559 26.0165ZM28.6249 20.1491L28.4313 18.6616C27.8153 18.7418 27.3125 19.1934 27.1668 19.7973C27.0211 20.4011 27.2627 21.0323 27.7743 21.3846L28.6249 20.1491ZM40.3244 31.2796C40.9433 31.8304 41.8914 31.7751 42.4422 31.1562C42.9929 30.5374 42.9376 29.5892 42.3187 29.0385L41.3216 30.1591L40.3244 31.2796ZM56.5431 32.4737C56.1102 31.7673 55.1867 31.5456 54.4804 31.9784C53.774 32.4113 53.5523 33.3348 53.9851 34.0411L55.2641 33.2574L56.5431 32.4737ZM59.8509 51.3751L58.6156 52.2259C58.968 52.7375 59.5993 52.979 60.2031 52.8331C60.807 52.6873 61.2584 52.1843 61.3384 51.5682L59.8509 51.3751ZM50.9611 37.683C50.4102 37.0643 49.462 37.0094 48.8433 37.5604C48.2247 38.1113 48.1698 39.0595 48.7207 39.6782L49.8409 38.6806L50.9611 37.683ZM38.2526 39.3014C38.8384 38.7156 38.8384 37.7659 38.2526 37.1801C37.6668 36.5943 36.717 36.5943 36.1313 37.1801L37.1919 38.2407L38.2526 39.3014ZM21.9169 53.5157L22.9767 54.5773L22.9776 54.5764L21.9169 53.5157ZM26.4886 58.0852L27.5483 59.1468L27.5556 59.1395L26.4886 58.0852ZM46.7281 39.7348C47.3104 39.1455 47.3047 38.1958 46.7154 37.6135C46.1261 37.0313 45.1763 37.037 44.5941 37.6263L45.6611 38.6806L46.7281 39.7348ZM40.4701 33.4914L41.5306 32.4305L41.5272 32.4272L40.4701 33.4914ZM46.5108 39.5299L47.5714 38.4692L47.5712 38.4691L46.5108 39.5299ZM48.9353 39.5364L49.9925 40.6005L49.9961 40.5969L48.9353 39.5364ZM56.4168 32.0527L57.4776 33.1132L57.4786 33.1122L56.4168 32.0527ZM56.4124 29.6304L55.3518 30.6911L55.3544 30.6937L56.4124 29.6304ZM50.3718 23.5897L49.3075 24.6468L49.3111 24.6504L50.3718 23.5897ZM47.9494 23.5832L46.8909 22.5205L46.8888 22.5226L47.9494 23.5832ZM40.4658 31.0669L39.4051 30.0062L39.4049 30.0065L40.4658 31.0669ZM46.7404 24.7381L47.525 23.4596C45.8861 22.4539 43.0268 21.0225 39.6511 19.9569C36.285 18.8943 32.2912 18.1592 28.4313 18.6616L28.6249 20.1491L28.8185 21.6365C32.0826 21.2116 35.6072 21.8263 38.7481 22.8178C41.8794 23.8062 44.5159 25.1329 45.9559 26.0165L46.7404 24.7381ZM28.6249 20.1491L27.7743 21.3846C32.0439 24.324 34.2598 25.8829 40.3244 31.2796L41.3216 30.1591L42.3187 29.0385C36.146 23.5456 33.8292 21.9108 29.4755 18.9136L28.6249 20.1491ZM55.2641 33.2574L53.9851 34.0411C54.869 35.4835 56.1947 38.1207 57.1824 41.2521C58.1731 44.3931 58.7873 47.9174 58.3634 51.1819L59.8509 51.3751L61.3384 51.5682C61.8396 47.7087 61.1052 43.7158 60.0435 40.3497C58.9788 36.9741 57.5485 34.1145 56.5431 32.4737L55.2641 33.2574ZM59.8509 51.3751L61.0862 50.5242C58.0894 46.1733 56.4567 43.8541 50.9611 37.683L49.8409 38.6806L48.7207 39.6782C54.1191 45.74 55.6758 47.9578 58.6156 52.2259L59.8509 51.3751ZM37.1919 38.2407L36.1313 37.1801L20.8563 52.4551L21.9169 53.5157L22.9776 54.5764L38.2526 39.3014L37.1919 38.2407ZM21.9169 53.5157L20.8572 52.4542C19.0112 54.2969 19.0704 57.2756 20.8996 59.1047L21.9603 58.0441L23.0209 56.9834C22.3237 56.2862 22.3439 55.2089 22.9767 54.5773L21.9169 53.5157ZM21.9603 58.0441L20.8996 59.1047C22.729 60.9341 25.7061 60.9858 27.5483 59.1468L26.4886 58.0852L25.4289 57.0236C24.7924 57.659 23.7135 57.676 23.0209 56.9834L21.9603 58.0441ZM26.4886 58.0852L27.5556 59.1395L46.7281 39.7348L45.6611 38.6806L44.5941 37.6263L25.4216 57.031L26.4886 58.0852ZM40.4701 33.4914L39.4096 34.5523L45.4503 40.5908L46.5108 39.5299L47.5712 38.4691L41.5306 32.4306L40.4701 33.4914ZM46.5108 39.5299L45.4501 40.5906C46.7057 41.8462 48.7362 41.8487 49.9925 40.6005L48.9353 39.5364L47.878 38.4723C47.7953 38.5545 47.6591 38.5569 47.5714 38.4692L46.5108 39.5299ZM48.9353 39.5364L49.9961 40.5969L57.4776 33.1132L56.4168 32.0527L55.3559 30.9922L47.8744 38.4759L48.9353 39.5364ZM56.4168 32.0527L57.4786 33.1122C57.7767 32.8134 58.0131 32.4588 58.1741 32.0685L56.7874 31.4965L55.4008 30.9245C55.3902 30.9502 55.3746 30.9735 55.3549 30.9932L56.4168 32.0527ZM56.7874 31.4965L58.1741 32.0685C58.335 31.6783 58.4175 31.2601 58.4168 30.838L56.9168 30.8407L55.4168 30.8434C55.4168 30.8712 55.4114 30.8987 55.4008 30.9245L56.7874 31.4965ZM56.9168 30.8407L58.4168 30.838C58.416 30.4158 58.332 29.998 58.1697 29.6084L56.7851 30.1853L55.4005 30.7623C55.4112 30.788 55.4167 30.8155 55.4168 30.8434L56.9168 30.8407ZM56.7851 30.1853L58.1697 29.6084C58.0073 29.2187 57.7697 28.8649 57.4704 28.5671L56.4124 29.6304L55.3544 30.6937C55.3741 30.7133 55.3898 30.7366 55.4005 30.7623L56.7851 30.1853ZM56.4124 29.6304L57.4731 28.5697L51.4324 22.5291L50.3718 23.5897L49.3111 24.6504L55.3518 30.6911L56.4124 29.6304ZM50.3718 23.5897L51.436 22.5327C51.1385 22.2332 50.7849 21.9952 50.3954 21.8325L49.8172 23.2166L49.2389 24.6007C49.2646 24.6114 49.2879 24.6271 49.3075 24.6468L50.3718 23.5897ZM49.8172 23.2166L50.3954 21.8325C50.0059 21.6698 49.5881 21.5855 49.166 21.5843L49.1619 23.0843L49.1579 24.5843C49.1857 24.5844 49.2133 24.5899 49.2389 24.6007L49.8172 23.2166ZM49.1619 23.0843L49.166 21.5843C48.7438 21.5832 48.3256 21.6653 47.9352 21.8259L48.506 23.2131L49.0768 24.6002C49.1025 24.5896 49.1301 24.5842 49.1579 24.5843L49.1619 23.0843ZM48.506 23.2131L47.9352 21.8259C47.5449 21.9865 47.19 22.2226 46.8909 22.5205L47.9494 23.5832L49.008 24.646C49.0277 24.6264 49.0511 24.6108 49.0768 24.6002L48.506 23.2131ZM47.9494 23.5832L46.8888 22.5226L39.4051 30.0062L40.4658 31.0669L41.5264 32.1276L49.0101 24.6439L47.9494 23.5832ZM40.4658 31.0669L39.4049 30.0065C39.1061 30.3054 38.8693 30.6603 38.7079 31.0509L40.0943 31.6235L41.4807 32.1962C41.4913 32.1704 41.5069 32.1471 41.5266 32.1274L40.4658 31.0669ZM40.0943 31.6235L38.7079 31.0509C38.5466 31.4415 38.4639 31.8601 38.4647 32.2827L39.9647 32.2801L41.4647 32.2774C41.4646 32.2495 41.4701 32.2219 41.4807 32.1962L40.0943 31.6235ZM39.9647 32.2801L38.4647 32.2827C38.4654 32.7054 38.5496 33.1237 38.7123 33.5137L40.0966 32.9361L41.481 32.3585C41.4703 32.3328 41.4647 32.3052 41.4647 32.2774L39.9647 32.2801ZM40.0966 32.9361L38.7123 33.5137C38.8751 33.9037 39.1132 34.2578 39.413 34.5556L40.4701 33.4914L41.5272 32.4272C41.5074 32.4075 41.4917 32.3842 41.481 32.3585L40.0966 32.9361Z" fill="var(--stroke-0, #A3AD00)"/>
</g>
</g>
</svg>
