<svg preserveAspectRatio="none" width="100%" height="100%" overflow="visible" style="display: block;" viewBox="0 0 24 24" fill="none" xmlns="http://www.w3.org/2000/svg">
<g id="flowbite:phone-outline">
<path id="Vector" d="M19.3448 15.1631L17.9425 13.7619C17.5711 13.3907 17.0676 13.1822 16.5425 13.1822C16.0175 13.1822 15.5139 13.3907 15.1425 13.7619L14.442 14.4625C14.2583 14.6467 14.0401 14.7928 13.7999 14.8926C13.5596 14.9923 13.3021 15.0436 13.042 15.0436C12.7819 15.0436 12.5243 14.9923 12.2841 14.8926C12.0439 14.7928 11.8257 14.6467 11.642 14.4625L9.54146 12.3594C9.17019 11.9876 8.96165 11.4836 8.96165 10.9581C8.96165 10.4327 9.17019 9.92867 9.54146 9.55685L10.2409 8.8562C10.6122 8.48439 10.8207 7.98039 10.8207 7.45492C10.8207 6.92944 10.6122 6.42545 10.2409 6.05363L8.84204 4.65234C8.67041 4.44804 8.45614 4.28378 8.2143 4.17109C7.97245 4.0584 7.70887 4 7.44206 4C7.17525 4 6.91167 4.0584 6.66982 4.17109C6.42797 4.28378 6.21371 4.44804 6.04207 4.65234C2.35868 8.30986 4.09695 12.5343 7.77805 16.2158C11.4592 19.8973 15.6797 21.6392 19.3436 17.9703C19.5491 17.7987 19.7144 17.584 19.8278 17.3415C19.9412 17.0989 20 16.8345 20 16.5667C20 16.299 19.9412 16.0345 19.8278 15.792C19.7144 15.5494 19.5502 15.3348 19.3448 15.1631Z" stroke="var(--stroke-0, #F8F8F8)" stroke-width="2" stroke-linecap="round" stroke-linejoin="bevel"/>
</g>
</svg>
