<svg preserveAspectRatio="none" width="100%" height="100%" overflow="visible" style="display: block;" viewBox="0 0 17.5 17.5" fill="none" xmlns="http://www.w3.org/2000/svg">
<g id="Group">
<path id="Vector" d="M0.75 8.75C0.75 13.1684 4.3316 16.75 8.75 16.75C13.1684 16.75 16.75 13.1684 16.75 8.75C16.75 4.3316 13.1684 0.75 8.75 0.75C4.3316 0.75 0.75 4.3316 0.75 8.75Z" stroke="var(--stroke-0, white)" stroke-width="1.5" stroke-linecap="round" stroke-linejoin="round"/>
<path id="Vector_2" d="M9.55 0.790625C9.55 0.790625 11.95 3.95062 11.95 8.75062C11.95 13.5506 9.55 16.7106 9.55 16.7106M7.95 16.7106C7.95 16.7106 5.55 13.5506 5.55 8.75062C5.55 3.95062 7.95 0.790625 7.95 0.790625M1.254 11.5506H16.246M1.254 5.95062H16.246" stroke="var(--stroke-0, white)" stroke-width="1.5" stroke-linecap="round" stroke-linejoin="round"/>
</g>
</svg>
