<svg width="24" height="24" viewBox="0 0 24 24" fill="none" xmlns="http://www.w3.org/2000/svg">
  <path d="M12 11.5725C11.4317 11.5725 10.8866 11.3468 10.4848 10.9449C10.0829 10.5431 9.85714 9.99801 9.85714 9.42969C9.85714 8.86137 10.0829 8.31632 10.4848 7.91446C10.8866 7.51259 11.4317 7.28683 12 7.28683C12.5683 7.28683 13.1134 7.51259 13.5152 7.91446C13.9171 8.31632 14.1429 8.86137 14.1429 9.42969C14.1429 9.71109 14.0874 9.98974 13.9797 10.2497C13.8721 10.5097 13.7142 10.7459 13.5152 10.9449C13.3162 11.1439 13.08 11.3017 12.82 11.4094C12.5601 11.5171 12.2814 11.5725 12 11.5725ZM12 3.42969C10.4087 3.42969 8.88258 4.06183 7.75736 5.18705C6.63214 6.31226 6 7.83839 6 9.42969C6 13.9297 12 20.5725 12 20.5725C12 20.5725 18 13.9297 18 9.42969C18 7.83839 17.3679 6.31226 16.2426 5.18705C15.1174 4.06183 13.5913 3.42969 12 3.42969Z" fill="black"/>
</svg>
