<svg width="40" height="40" viewBox="0 0 39.9904 39.9995" fill="none" xmlns="http://www.w3.org/2000/svg">
<path d="M12.9551 12.9547L19.9935 0L27.033 12.9547C27.033 12.9547 23.2207 11.5668 19.9935 11.5668C16.191 11.5668 12.9551 12.9547 12.9551 12.9547Z" fill="#F0AB00"/>
<path d="M12.9503 27.0422L0 20.0035L12.9503 12.9648C12.9503 12.9648 11.5631 16.7762 11.5631 20.0035C11.5631 23.8066 12.9503 27.0422 12.9503 27.0422Z" fill="#A2AD00"/>
<path d="M27.033 27.0449L19.9935 39.9995L12.9551 27.0449C12.9551 27.0449 16.7663 28.4328 19.9935 28.4328C23.7971 28.4328 27.033 27.0449 27.033 27.0449Z" fill="#A2AD00"/>
<path d="M27.04 12.9551L39.9904 19.9937L27.04 27.0324C27.04 27.0324 28.4273 23.221 28.4273 19.9937C28.4273 16.1906 27.04 12.9551 27.04 12.9551Z" fill="#A2AD00"/>
</svg>
