<svg preserveAspectRatio="none" width="100%" height="100%" overflow="visible" style="display: block;" viewBox="0 0 80 80" fill="none" xmlns="http://www.w3.org/2000/svg">
<g id="Group 2085662827">
<circle id="Ellipse 31" cx="40" cy="40" r="38.5" stroke="var(--stroke-0, #A3AD00)" stroke-width="3"/>
<g id="Vector">
<path d="M25.2276 41.1572C24.0679 41.2993 23.0869 42.0362 22.6918 43.1365C22.088 44.8184 21.232 47.7398 20.6903 51.9016C20.5031 53.3454 21.5142 54.6329 22.9646 54.7553C24.446 54.8824 26.5746 55 29.3512 55C32.1278 55 34.2572 54.8824 35.7396 54.7562C37.189 54.6329 38.2002 53.3454 38.012 51.9016C37.4712 47.7398 36.6153 44.8184 36.0114 43.1365C35.6164 42.0362 34.6354 41.2984 33.4756 41.1572C32.3554 41.0207 30.8533 40.8824 29.3512 40.8824C27.849 40.8824 26.3469 41.0207 25.2276 41.1572Z" stroke="var(--stroke-0, #A3AD00)" stroke-width="3" stroke-linecap="round" stroke-linejoin="round"/>
<path d="M46.8611 41.1572C45.7013 41.2993 44.7203 42.0362 44.3252 43.1365C43.7214 44.8184 42.8655 47.7398 42.3237 51.9016C42.1365 53.3454 43.1476 54.6329 44.598 54.7553C46.0794 54.8824 48.208 55 50.9846 55C53.7612 55 55.8907 54.8824 57.373 54.7562C58.8224 54.6329 59.8336 53.3454 59.6455 51.9016C59.1046 47.7398 58.2487 44.8184 57.6448 43.1365C57.2498 42.0362 56.2688 41.2984 55.109 41.1572C53.9888 41.0207 52.4857 40.8824 50.9846 40.8824C49.4834 40.8824 47.9803 41.0207 46.8611 41.1572Z" stroke="var(--stroke-0, #A3AD00)" stroke-width="3" stroke-linecap="round" stroke-linejoin="round"/>
<path d="M36.0443 23.2748C34.8846 23.4169 33.9036 24.1539 33.5085 25.2541C32.9047 26.936 32.0488 29.8574 31.507 34.0193C31.3198 35.4631 32.3309 36.7506 33.7813 36.8729C35.2627 37 37.3913 37.1176 40.1679 37.1176C42.9445 37.1176 45.0739 37 46.5563 36.8739C48.0057 36.7506 49.0169 35.4631 48.8288 34.0193C48.2879 29.8574 47.432 26.936 46.8281 25.2541C46.4331 24.1539 45.4521 23.416 44.2923 23.2748C43.1721 23.1384 41.669 23 40.1679 23C38.6667 23 37.1636 23.1384 36.0443 23.2748Z" stroke="var(--stroke-0, #A3AD00)" stroke-width="3" stroke-linecap="round" stroke-linejoin="round"/>
</g>
</g>
</svg>
