<svg width="470" height="277" viewBox="0 0 470 277" fill="none" xmlns="http://www.w3.org/2000/svg">
<path id="borders" d="M218.523 276.923C216.755 276.721 216.408 276.461 215.567 274.584L215.103 273.573L212.148 273.544C210.38 273.544 208.931 273.4 208.554 273.198C208.207 272.996 206.584 270.945 204.961 268.664L201.976 264.477H197.282C191.892 264.477 191.921 264.477 191.371 262.167C191.168 261.359 190.907 260.637 190.762 260.579C190.646 260.492 190.095 260.983 189.574 261.647C188.386 263.178 188.183 263.322 187.603 263.033C187.343 262.889 185.778 258.991 183.981 253.937L180.794 245.101L178.678 242.589C176.853 240.423 176.592 239.961 176.737 239.268C176.824 238.835 176.824 238.489 176.708 238.489C176.592 238.489 174.795 239.008 172.738 239.673C169.173 240.799 168.797 240.856 166.623 240.683C163.726 240.481 163.378 240.192 163.841 238.46C164.16 237.247 164.16 237.189 163.349 236.525C161.784 235.254 160.973 234.966 159.495 235.168C158.538 235.283 158.046 235.226 157.843 234.966C157.669 234.764 157.379 232.944 157.177 230.981C156.974 228.988 156.684 227.14 156.539 226.88C156.394 226.592 155.061 225.985 153.409 225.465L150.541 224.541L148.86 225.263L147.179 226.014L142.688 225.552C139.384 225.234 137.848 225.177 136.776 225.408C134.834 225.812 125.822 224.455 122.838 223.329C120.983 222.636 120.78 222.607 120.461 223.04C120.114 223.531 120.143 223.791 121.215 226.765C122.055 229.104 121.997 229.826 121.07 229.826C120.664 229.826 119.824 229.566 119.215 229.248C118.578 228.931 117.622 228.671 117.042 228.671C116.086 228.671 116.028 228.728 115.738 229.883C115.072 232.569 115.1 232.54 113.681 232.713C112.985 232.771 112.406 233.002 112.464 233.175C112.492 233.349 113.159 234.475 113.97 235.688C114.782 236.9 115.448 238.113 115.448 238.402C115.448 239.124 112.637 242.242 112 242.242C111.739 242.242 110.87 241.78 110.087 241.232C108.465 240.077 107.914 239.99 107.19 240.799C106.378 241.665 105.886 241.521 104.06 239.846C102.582 238.517 102.35 238.171 102.089 236.785C101.945 235.947 101.742 235.139 101.626 234.966C101.452 234.677 100.061 234.764 98.699 235.168C98.0325 235.37 98.0035 235.341 95.9461 232.887L95.2506 232.02L92.7295 232.627C89.8027 233.291 89.3101 233.118 88.7306 231.27C88.4118 230.143 88.3828 230.114 87.0788 230.172L85.7748 230.259L85.3691 228.238C84.2969 222.664 84.5577 223.242 82.9639 222.549C81.515 221.943 81.3412 221.712 81.1673 219.863C81.1093 219.055 81.0224 218.997 80.0951 219.055C79.5156 219.113 78.7911 219.199 78.4434 219.286C77.603 219.459 76.9075 218.737 76.9075 217.698C76.9075 217.236 76.7626 216.831 76.5888 216.774C76.4149 216.716 74.5603 216.947 72.4449 217.293C70.3585 217.64 67.9244 218.015 67.055 218.16C65.5192 218.391 65.4612 218.449 64.9976 219.632C64.3311 221.481 63.9544 221.74 62.4186 221.452C60.8827 221.163 60.5929 220.816 60.1293 218.708C59.9264 217.842 59.6367 217.034 59.4918 216.947C59.3469 216.86 58.2747 217.293 57.1156 217.9C55.1161 218.939 55.0002 219.055 54.9133 220.094C54.8553 221.105 54.6814 221.307 52.7979 222.491C51.6967 223.213 50.7115 223.964 50.6535 224.166C50.5666 224.368 50.6245 224.888 50.7984 225.292C51.0302 225.899 51.0012 226.332 50.6825 227.111C50.016 228.671 50.1319 229.046 51.5228 230.114C52.3052 230.663 52.9428 231.443 53.0876 231.963C53.4644 233.146 53.7541 238.546 53.4933 238.951C53.3774 239.124 52.8848 239.441 52.4211 239.673C51.9285 239.904 51.5518 240.221 51.5808 240.394C51.6098 240.539 51.7257 240.972 51.8126 241.376C52.1604 242.907 51.8706 242.964 46.8864 242.416L42.3078 241.925L40.801 242.964C39.9606 243.513 38.3958 244.379 37.2947 244.841L35.3241 245.679L35.2952 248.797C35.2662 250.501 35.2372 252.06 35.2082 252.263C35.1793 252.436 34.5128 253.446 33.7304 254.486L32.2815 256.363V261.099C32.2815 264.535 32.1655 265.921 31.9047 266.123C31.4121 266.527 27.616 267.365 26.2251 267.365C24.5443 267.365 24.1676 266.672 24.1676 263.726V261.359L22.5738 258.962C20.9511 256.478 20.7482 255.843 21.2698 254.515C21.4727 253.908 21.4147 253.504 20.9221 252.551C20.1107 250.905 18.9806 249.462 18.5459 249.462C18.3431 249.462 17.5027 249.259 16.7203 249.028C15.0396 248.538 15.0685 248.566 13.8515 244.264C13.156 241.723 12.9821 241.405 11.6491 240.221C10.7798 239.442 9.41784 237.622 8.25872 235.745C6.54902 232.973 6.20129 232.569 5.18706 232.222C4.54954 231.991 3.85407 231.674 3.6802 231.472C3.47736 231.27 3.24553 229.566 3.12962 227.227C3.01371 225.061 2.75291 222.809 2.52108 222.174C1.1881 218.42 0.695471 216.658 0.347736 214.666L0 212.413L0.782405 211.749C1.88357 210.796 2.69495 210.854 3.62225 211.98L4.40465 212.904L5.56377 211.98C6.66493 211.085 6.8388 211.056 8.34566 211.229L9.96842 211.403V209.959C9.96842 207.966 10.3162 207.735 12.6634 208.14C15.0106 208.544 14.9526 208.544 14.5759 207.851C14.1413 207.042 14.431 206.32 15.6191 205.281C17.2998 203.837 19.5022 204.097 21.6176 206.032C22.2261 206.58 22.8636 207.014 23.0085 206.956C23.1244 206.898 23.8778 206.032 24.6313 205.021C25.8483 203.404 26.254 203.086 27.645 202.624C28.5143 202.336 29.2388 202.105 29.2678 202.105C29.4126 202.076 29.9632 200.199 29.9632 199.708C29.9632 199.39 29.3837 198.206 28.6592 197.08C27.4711 195.174 27.3552 194.799 27.0944 192.2C26.9205 190.67 26.7177 189.284 26.6308 189.11C26.5438 188.966 25.7904 188.533 24.95 188.157C23.675 187.58 23.2693 187.176 22.342 185.645C21.7335 184.634 21.2698 183.682 21.2698 183.508C21.2698 183.364 21.5306 182.353 21.8784 181.256L22.5159 179.292L21.8494 177.184C21.5017 176.029 21.2409 174.817 21.2988 174.499C21.3568 174.21 21.9363 173.661 22.5738 173.344C23.4432 172.882 23.8489 172.449 24.2256 171.467C25.037 169.33 24.95 169.186 23.1824 169.186C21.3568 169.186 21.038 168.897 20.9221 167.164C20.8352 165.952 20.7482 165.807 19.5891 165.287C18.2271 164.652 17.9374 164.19 18.401 163.353C19.3863 161.476 22.5159 157.058 22.8346 157.058C23.3562 157.058 23.7909 157.606 24.0227 158.588C24.2546 159.512 25.037 160.003 26.0802 159.888C26.8336 159.801 26.8336 159.743 26.8916 157.491C26.9205 155.729 27.1524 154.43 27.8768 152.149C28.8041 149.319 28.978 149.001 30.7167 147.211C31.7309 146.171 32.5712 145.045 32.5712 144.728C32.5712 144.439 31.8468 142.417 30.9485 140.281C28.8621 135.285 28.949 135.632 29.7314 134.736C30.1081 134.274 31.2383 132.513 32.2525 130.751C34.2809 127.229 35.0633 126.449 36.5122 126.449C37.3526 126.449 37.6134 126.247 38.6856 124.687C39.8737 123.042 40.0186 122.926 42.105 122.291C43.3221 121.915 45.0318 121.424 45.9591 121.222C47.6108 120.876 47.6398 120.876 50.1029 121.973C51.4649 122.551 52.624 122.984 52.7109 122.926C52.7689 122.839 52.566 121.973 52.2473 120.991C51.6967 119.403 51.6677 119.143 52.0444 118.566C52.3632 118.075 52.3922 117.786 52.1604 117.411C51.5228 116.429 52.2763 116.256 56.9417 116.313C60.6219 116.342 62.1577 116.227 65.751 115.591C68.1272 115.187 70.2136 114.725 70.3585 114.581C70.5034 114.436 70.8511 112.935 71.1409 111.231C71.4307 109.527 71.7784 108.026 71.9233 107.882C72.0682 107.737 72.8216 107.477 73.604 107.275C74.995 106.929 75.024 106.871 76.4729 104.243C77.8638 101.644 77.9797 101.5 80.1531 100.2C82.5293 98.7566 83.8333 97.2551 85.8617 93.5589L86.9049 91.682L89.3391 91.1333C90.7011 90.8445 91.8602 90.5558 91.9181 90.498C91.9761 90.4403 92.2948 89.1697 92.5846 87.697C92.8744 86.2244 93.1932 84.7805 93.2801 84.4918C93.4829 83.8854 94.6131 83.279 97.1631 82.4127C99.0177 81.8063 99.1916 81.7774 103.133 82.1528C105.364 82.3549 107.45 82.5282 107.798 82.5282C108.899 82.5571 109.363 83.3079 109.363 85.0982C109.363 86.8308 109.015 87.466 108.117 87.466C107.363 87.466 107.566 88.0436 109.537 91.8841C111.073 94.8872 111.131 95.1182 111.507 98.67C111.739 100.691 112.174 103.088 112.521 104.041C112.84 104.965 113.101 106.207 113.101 106.784C113.101 108.748 112.029 114.639 111.623 115.043C111.188 115.476 107.045 116.631 105.886 116.631C104.379 116.631 100.843 114.985 99.8291 113.83C97.1921 110.827 95.4245 107.073 94.671 102.915C94.2074 100.229 93.9466 99.825 93.3091 100.807C92.8744 101.442 92.8744 101.789 93.2511 104.503C93.5119 106.178 93.6858 107.766 93.6858 108.026C93.7148 108.315 92.9613 109.065 92.0051 109.758C91.0778 110.451 89.484 112.011 88.4697 113.252L86.6441 115.534L87.3106 118.739C88.2379 123.244 88.5567 123.706 89.9186 122.291C90.4692 121.684 90.4982 121.482 90.2374 120.962C89.8607 120.298 90.0635 117.382 90.5272 116.14C90.817 115.36 93.8017 114.292 94.2943 114.783C94.4682 114.956 94.729 116.371 94.9029 117.93C95.1926 120.558 95.3086 120.876 96.2648 122.002C97.5688 123.59 97.9745 123.735 98.3802 122.753C99.974 118.941 99.8581 119.085 101.713 118.595C102.93 118.277 104.292 118.19 106.465 118.277C110.812 118.421 110.58 118.335 111.507 120.645C112.406 122.984 112.666 123.07 114.434 121.858L115.593 121.049L115.477 118.97L115.39 116.92L117.216 116.053C119.708 114.927 120.954 113.397 121.215 111.173C121.447 109.008 122.026 108.921 124.2 110.682C125.764 111.982 126.025 112.444 126.981 115.36C127.3 116.371 126.924 117.353 125.648 118.768C124.866 119.663 124.779 119.663 123.156 118.883C121.997 118.335 121.765 118.306 120.925 118.652L119.998 119.028L120.201 120.76C120.461 123.013 120.664 123.388 121.997 123.763C123.069 124.11 123.098 124.11 124.779 122.522L126.46 120.905L135.646 121.02C145.296 121.136 146.455 121.28 146.455 122.377C146.455 122.811 145.962 123.215 144.774 123.821C143.847 124.283 142.861 124.861 142.543 125.092C141.963 125.525 141.963 125.554 142.601 126.189C143.209 126.795 143.325 126.824 144.484 126.478C146.773 125.785 147.556 125.785 149.266 126.42C150.627 126.911 151.468 126.998 153.699 126.94L156.452 126.882V128.297C156.452 130.116 156.974 130.52 158.365 129.712C159.321 129.163 159.35 129.106 159.379 127.142C159.408 124.428 159.35 124.572 160.625 123.994L161.755 123.475L164.972 125.323L168.188 127.142L172.158 133.148C174.331 136.44 176.215 139.154 176.331 139.154C176.418 139.154 176.737 138.808 176.997 138.404C177.461 137.711 177.461 137.624 176.997 136.931C176.65 136.353 176.563 135.834 176.708 134.563L176.911 132.917L175.722 131.964C174.331 130.867 174.245 130.203 175.404 129.279C176.244 128.586 177.751 125.958 177.751 125.149C177.751 124.89 177.606 124.456 177.403 124.168C177.171 123.792 177.2 123.273 177.577 122.031C178.041 120.414 178.099 120.356 180.504 118.883C182.764 117.526 183.228 117.064 185.459 114.09C186.792 112.3 188.067 110.74 188.27 110.682C188.473 110.596 190.009 111.029 191.66 111.635C193.776 112.415 194.703 112.906 194.79 113.252C194.848 113.541 194.732 114.639 194.558 115.707C194.268 117.468 194.037 117.902 192.298 120.067L190.385 122.464L190.907 124.572L191.457 126.68L190.675 128.73C190.269 129.885 189.893 131.156 189.893 131.589C189.893 132.022 189.458 133.639 188.878 135.227C188.328 136.787 187.893 138.317 187.893 138.606C187.893 138.895 188.212 139.963 188.647 140.974L189.4 142.822L188.27 145.074C187.661 146.287 186.502 147.991 185.72 148.799C184.908 149.636 183.72 150.936 183.083 151.658C181.982 152.928 181.808 153.015 180.475 153.015C179.692 153.015 178.33 152.813 177.461 152.582C176.592 152.351 175.838 152.206 175.78 152.264C175.751 152.293 176.331 152.928 177.113 153.65C179.084 155.47 180.504 155.701 183.141 154.603C184.474 154.026 185.314 153.448 186.068 152.524C186.647 151.802 187.719 150.82 188.444 150.358C190.472 149.001 190.501 148.943 190.501 145.19V141.782L192.095 141.176C193.979 140.483 194.79 140.454 196.123 141.003C197.137 141.436 197.543 142.302 198.18 145.421C198.296 146.114 198.528 146.373 198.963 146.373C199.484 146.373 199.542 146.258 199.368 145.016C199.253 144.294 199.195 143.457 199.195 143.168C199.195 142.764 197.485 141.262 195.746 140.194C195.514 140.05 194.442 139.847 193.341 139.732C192.24 139.588 191.168 139.328 190.936 139.154C190.588 138.866 190.501 138.144 190.501 136.325C190.501 133.899 190.501 133.812 191.805 131.733L193.138 129.596L192.414 126.564C191.892 124.399 191.747 123.301 191.95 122.811C192.24 122.089 194.326 119.894 196.123 118.508C197.108 117.728 197.253 117.468 197.369 116.053C197.485 115.072 197.717 114.321 198.006 114.119C198.673 113.599 200.238 113.657 200.47 114.205C200.904 115.389 200.586 117.757 199.6 120.529C197.978 124.976 197.949 124.659 200.354 125.958C201.484 126.564 202.498 126.998 202.585 126.882C202.701 126.795 202.034 125.958 201.165 125.063C200.267 124.139 199.484 123.186 199.368 122.897C199.108 122.117 200.209 120.125 201.049 119.923C201.455 119.836 201.919 119.836 202.121 119.952C202.382 120.125 202.411 120.038 202.237 119.634C201.513 117.959 201.658 117.671 203.483 116.804C204.44 116.342 205.425 116.053 205.686 116.14C205.946 116.256 206.352 116.775 206.584 117.295C206.787 117.844 207.221 118.335 207.54 118.421C207.83 118.508 208.757 119.403 209.598 120.414C212.495 123.908 212.553 123.966 212.843 123.475C213.191 122.839 212.814 121.973 211.249 119.894C210.525 118.941 209.887 117.902 209.829 117.584C209.685 116.429 210.264 111.722 210.612 111.26C210.902 110.856 212.061 110.654 216.726 110.22C219.885 109.932 222.551 109.614 222.638 109.527C222.696 109.441 222.551 108.777 222.29 108.055C221.797 106.755 221.797 106.698 222.377 105.716C223.304 104.128 225.97 100.691 227.042 99.6807C227.593 99.1898 229.448 98.1502 231.186 97.3706C233.505 96.3599 234.49 95.7535 234.809 95.176C235.127 94.6562 235.997 94.0787 237.648 93.3279C240.227 92.2017 240.662 92.2306 241.039 93.6744C241.271 94.5696 241.676 94.5696 243.676 93.5878C245.27 92.8081 245.27 92.8081 245.096 91.7686C244.893 90.5558 245.212 90.2093 246.805 89.9205L247.936 89.7184L247.733 87.9569L247.559 86.1666L249.297 83.51C251.674 79.8427 252.92 79.3229 256.049 80.6224C257.295 81.1421 257.44 81.8063 256.571 82.9036C255.76 83.9143 255.818 84.0009 257.093 84.0009C258.339 84.0009 258.889 84.4052 258.889 85.3581C258.889 86.1955 259.005 86.1955 260.338 85.1559C261.381 84.3185 261.526 84.2897 264.482 84.2897H267.525L269.64 86.0511C270.828 87.004 271.958 88.2168 272.161 88.7077C272.422 89.2852 272.567 90.7579 272.596 92.8081C272.596 96.3599 272.567 96.5043 270.075 100.172C269.263 101.355 267.872 103.637 267.003 105.225C266.105 106.813 265.004 108.719 264.569 109.47L263.758 110.856H264.424C264.917 110.856 266.076 109.961 268.162 107.997C271.379 104.936 273.958 103.059 274.827 103.059C275.146 103.059 275.609 103.377 275.87 103.781C276.45 104.676 276.769 104.676 277.174 103.781C277.377 103.348 277.986 102.886 278.71 102.626C281.028 101.818 285.491 100.749 285.955 100.922C286.244 101.038 286.418 101.442 286.418 102.02C286.418 103.001 286.853 103.637 287.548 103.637C288.099 103.637 294.213 101.153 294.59 100.778C294.764 100.605 294.619 99.9694 294.271 99.1609C293.489 97.4283 293.489 96.9086 294.271 95.5225L294.909 94.3963H297.43C299.864 94.3963 299.951 94.3674 301.139 93.3279C302.095 92.5194 302.501 92.3461 302.936 92.5482C303.399 92.7504 306.297 95.2337 310.673 99.1609C311.658 100.027 311.774 101.038 310.876 101.038C310.238 101.038 310.383 101.5 311.223 102.164C312.238 102.973 318.294 104.907 318.265 104.416C318.265 104.387 317.772 102.799 317.135 100.893C316.295 98.3524 316.092 97.3417 316.324 97.0529C316.555 96.793 317.425 96.7064 319.511 96.7642L322.409 96.8508L322.902 95.407C323.452 93.7899 324.206 93.2413 325.857 93.2413C326.785 93.2413 327.19 92.9814 328.552 91.6242C329.451 90.729 330.146 89.9205 330.146 89.8339C330.146 89.7184 329.364 89.0831 328.407 88.3901C327.451 87.7259 326.669 86.9463 326.669 86.6575C326.669 86.3976 326.553 85.2426 326.408 84.1453C326.292 83.0191 326.292 81.8929 326.437 81.633C326.582 81.3443 327.712 80.5646 328.929 79.8716C335.826 75.9733 338.202 74.4717 339.535 73.2878C341.563 71.4686 341.998 71.2953 344.171 71.2953C346.403 71.2953 346.982 71.6996 346.461 73.0279C346.287 73.5188 346.229 73.9231 346.345 73.9808C346.519 74.0963 353.184 72.6814 354.024 72.3638C354.256 72.2771 355.56 69.9959 356.922 67.3393L359.385 62.4592L361.993 61.102L364.601 59.716L366.571 60.0336C368.252 60.2935 368.716 60.4957 369.643 61.3908L370.715 62.4592L371.961 61.5929C373.004 60.8422 373.294 60.409 373.932 58.5609C374.801 56.0198 374.627 56.3375 377.409 52.5258C379.177 50.1291 379.669 49.2051 379.843 48.1366C379.959 47.3859 380.191 46.6639 380.394 46.5196C380.568 46.3463 382.104 46.1442 383.813 46.0287C385.494 45.9132 387.001 45.7399 387.175 45.6244C387.609 45.3356 387.812 43.4009 387.464 43.0255C387.291 42.8523 386.334 42.7079 385.349 42.7079C383.697 42.7079 383.437 42.6213 382.277 41.6684C381.582 41.0908 380.915 40.3978 380.771 40.0802C380.568 39.6759 381.234 38.3187 383.61 34.1317C387.088 27.981 387.667 27.3458 394.332 22.1192C399.635 17.9899 409.227 11.5216 410.125 11.5216C410.502 11.5216 411.661 11.7815 412.704 12.128C414.008 12.59 414.675 12.6767 415.022 12.4745C415.921 11.9259 415.66 11.6082 414.182 11.4061C413.371 11.3195 412.501 11.0885 412.299 10.9152C411.632 10.3666 411.806 9.09601 412.617 8.34522C413.023 7.96983 413.458 7.13242 413.632 6.46827C414.24 4.10042 414.472 3.81166 417.399 1.87695C418.993 0.808534 420.557 0 420.905 0C421.253 0 422.238 0.490895 423.078 1.12617C424.817 2.4256 424.904 2.68549 424.209 5.3421C423.948 6.23726 423.832 7.04579 423.89 7.13242C423.977 7.21905 425.571 7.50781 427.425 7.82545C431.917 8.57623 432.062 8.63399 432.467 10.1355C432.786 11.2328 432.757 11.4927 432.12 12.6478C431.569 13.7451 431.25 14.005 430.236 14.236C429.251 14.4959 428.816 14.8712 427.628 16.4306C426.266 18.2498 426.179 18.3075 424.701 18.4519C422.528 18.654 421.803 19.4914 421.398 22.0614C421.224 23.1587 420.963 24.256 420.789 24.4581C420.557 24.7469 419.92 24.7758 418.239 24.6314C415.805 24.4293 415.486 24.5737 415.921 25.7576C416.153 26.364 416.442 26.5084 417.717 26.6527C422.615 27.2591 422.441 27.1148 423.484 31.3884L424.151 34.045L423.194 35.229C422.441 36.1819 422.325 36.4706 422.644 36.6728C423.223 37.0482 423.252 37.0193 425.165 35.7487C427.164 34.4204 427.309 34.3916 429.714 34.8825C431.308 35.229 431.598 35.2001 433.568 34.5359C434.756 34.1317 435.945 33.8718 436.234 33.9584C436.843 34.1028 439.712 36.5862 439.712 36.9615C439.712 37.1059 438.727 38.261 437.538 39.5315C436.321 40.8021 435.365 42.1015 435.365 42.4191C435.365 42.9967 437.423 51.1109 438.813 56.1353C441.248 64.7116 441.769 66.2131 442.928 67.8302C443.595 68.812 444.001 69.6494 443.885 69.9093C443.74 70.2847 439.509 71.8729 438.611 71.8729C437.973 71.8729 437.683 72.7392 437.365 75.338L437.046 78.0813L437.944 80.016C438.437 81.0844 438.842 82.1528 438.842 82.4127C438.842 83.1635 437.973 83.2501 436.785 82.5571C436.147 82.2106 435.51 81.9795 435.365 82.0084C435.22 82.0662 435.336 82.6726 435.655 83.3656C436.437 85.0982 436.379 85.6757 435.191 87.1484C434.641 87.8414 434.206 88.5633 434.206 88.7366C434.206 88.9387 434.901 90.1804 435.771 91.5087C436.64 92.8659 438.002 95.0027 438.813 96.3021C439.625 97.6016 440.465 98.8144 440.697 98.9876C441.277 99.4785 441.769 99.1031 441.566 98.3235C441.363 97.515 441.798 97.1396 443.421 96.7064C445.189 96.2444 445.797 96.4754 446.753 98.0058C447.941 99.8539 449.738 100.749 452.433 100.749C454.201 100.749 454.462 100.807 454.635 101.327C454.867 102.049 454.519 104.214 454.114 104.734C453.766 105.138 454.635 108.344 455.186 108.777C455.36 108.921 456.432 109.268 457.62 109.556C460.025 110.134 460.402 110.509 460.692 112.762C460.895 114.148 460.837 114.321 459.996 115.274C459.185 116.198 459.098 116.458 459.185 117.844L459.272 119.345L461.3 120.731C462.402 121.482 463.474 122.32 463.677 122.579C463.908 122.926 464.053 124.168 464.053 126.189V129.308L465.502 130.954C466.314 131.878 467.328 133.293 467.791 134.072C468.69 135.689 470.255 141.782 469.965 142.648C469.588 143.89 468.226 143.341 455.099 136.787L442.233 130.347L439.161 126.998L436.061 123.677L435.51 120.991C434.988 118.335 434.959 118.277 433.597 117.237C432.004 116.025 431.917 115.736 432.67 112.964L433.163 111.116L431.975 107.593C431.308 105.658 429.946 101.789 428.961 99.0165C426.73 92.6638 426.701 92.6349 426.411 88.5344C426.121 84.5784 426.237 84.7228 422.47 82.0951C419.862 80.2759 419.63 79.9005 420.441 78.5144C420.905 77.6481 420.992 76.9551 420.557 77.215C420.123 77.4749 418.819 80.1315 418.848 80.7379C418.877 81.0266 419.804 82.0084 420.905 82.9325L422.934 84.6362L422.76 85.9645C422.615 86.8885 422.789 88.4767 423.31 91.0178C424.122 95.1182 424.209 95.9845 423.745 96.2733C423.571 96.3888 422.557 96.3888 421.514 96.2733C419.746 96.0711 419.514 95.9556 418.123 94.6562C416.356 93.0103 416.645 92.8659 414.24 96.4754C413.429 97.7171 412.762 99.0454 412.762 99.4497C412.762 100.605 416.529 112.617 417.196 113.657C417.92 114.754 418.036 114.783 419.108 114.003C420.123 113.252 420.789 113.512 421.601 115.014C422.209 116.169 422.354 115.88 419.92 118.739C419.05 119.75 418.645 120.616 418.094 122.724C416.471 128.73 416.732 128.412 413.892 127.893C412.096 127.546 411.835 127.257 412.212 126.074C412.328 125.583 412.386 125.121 412.328 125.063C412.241 124.976 410.995 125.611 409.546 126.478C407.72 127.546 406.967 128.153 407.054 128.47C407.141 128.701 407.43 129.481 407.72 130.203C408.358 131.878 408.155 132.397 406.706 132.831C405.605 133.148 405.518 133.235 405.46 134.361C405.373 135.516 405.344 135.545 403.692 136.122C402.098 136.642 402.04 136.729 401.982 137.711C401.982 138.259 401.982 138.808 401.982 138.923C402.011 139.01 401.316 139.299 400.476 139.559C399.027 139.963 398.766 140.223 395.984 143.544C394.361 145.507 393.057 147.355 393.057 147.673C393.057 147.991 393.26 148.568 393.492 148.972C394.071 150.012 394.013 151.023 393.202 153.159L392.478 155.036L393.55 156.769L394.593 158.53L393.637 162.198L392.709 165.865L393.173 169.965L393.666 174.095L392.652 178.773C391.174 185.472 391.174 185.645 391.666 185.645C391.898 185.645 392.999 184.981 394.158 184.201C395.289 183.393 396.361 182.758 396.564 182.758C396.766 182.758 397.201 183.017 397.549 183.335C398.157 183.913 398.215 183.913 400.041 183.422C401.084 183.162 402.098 183.017 402.359 183.104C402.591 183.191 402.939 183.826 403.142 184.49C403.518 185.645 403.547 185.674 404.069 185.183C404.822 184.519 404.793 183.999 403.924 182.613C402.881 180.938 402.997 180.419 404.59 178.917C406.242 177.387 407.575 177.011 409.488 177.502C410.183 177.704 412.038 177.849 413.632 177.849H416.529V176.953C416.529 176.462 416.703 175.712 416.964 175.25C417.544 174.095 417.254 173.604 415.631 173.055C413.197 172.247 412.936 170.572 414.994 168.984C415.689 168.464 416.413 168.117 416.616 168.175C416.819 168.262 417.544 169.041 418.268 169.936C418.964 170.832 420.963 172.795 422.644 174.268C424.44 175.827 425.976 177.444 426.266 178.051C426.846 179.235 426.73 179.148 435.51 183.97C444.435 188.879 445.247 189.399 445.16 190.063C445.073 190.467 444.464 190.872 442.899 191.536C441.682 192.027 440.697 192.633 440.639 192.864C440.61 193.095 441.335 195.03 442.291 197.196C443.566 200.083 444.203 201.238 444.841 201.671C445.305 201.989 447.594 202.884 449.912 203.635C454.027 204.963 454.201 205.079 455.331 206.407C456.49 207.793 456.78 208.544 456.229 208.89C456.084 208.977 454.838 208.89 453.447 208.717C452.085 208.544 450.897 208.457 450.781 208.573C450.694 208.659 451.042 209.612 451.535 210.71C452.491 212.76 452.665 213.771 452.143 214.088C451.825 214.29 448.173 212.529 446.782 211.46C445.565 210.565 442.349 206.205 441.016 203.606C440.089 201.845 439.741 201.44 438.698 200.978C437.741 200.545 436.611 199.361 433.105 195.145C426.817 187.493 427.106 187.753 424.527 186.656L422.238 185.674L422.412 187.002C422.731 189.312 424.904 193.297 427.483 196.329C428.845 197.889 430.7 200.545 431.859 202.538L433.829 206.003L434.177 211.634C434.409 215.879 434.67 217.958 435.22 220.152C435.945 222.953 435.974 223.415 436.147 235.023L436.292 247.036L435.075 249.75C434.409 251.252 433.452 253.331 432.96 254.371L432.033 256.247L428.7 257.258C426.846 257.836 425.165 258.355 424.962 258.413C424.701 258.529 424.498 259.337 424.353 260.723C424.064 263.322 422.876 266.21 422.064 266.21C421.774 266.21 421.166 266.065 420.702 265.921C420.239 265.777 419.311 265.517 418.645 265.343C416.993 264.939 416.906 264.391 418.21 263.091C418.819 262.514 419.601 261.416 419.949 260.666L420.615 259.308L418.964 256.709C417.804 254.833 416.819 253.677 415.486 252.609C414.472 251.772 413.574 250.934 413.516 250.732C413.429 250.53 413.748 249.173 414.24 247.729C415.225 244.784 415.341 244.697 418.094 244.35C420.297 244.119 420.441 243.975 420.065 242.473C419.891 241.78 419.659 240.048 419.601 238.633C419.456 236.323 419.282 235.63 417.978 232.569C416.674 229.508 416.529 228.931 416.674 227.747C416.848 226.563 416.732 226.245 415.747 224.657C415.138 223.675 414.559 222.895 414.443 222.895C414.24 222.895 411.168 227.631 410.386 229.19C410.096 229.768 408.908 231.27 407.72 232.482L405.634 234.735H404.011H402.417L400.157 232.251C398.36 230.288 397.781 229.826 397.317 229.97C396.998 230.086 395.52 229.999 394.071 229.797C391.434 229.45 391.347 229.45 389.522 230.172C388.508 230.577 386.798 231.125 385.697 231.385C383.871 231.847 383.668 231.847 383.002 231.414C382.364 230.981 378.249 227.313 370.483 220.21C368.948 218.795 367.383 217.524 367.006 217.38C365.992 216.976 364.572 217.062 363.818 217.582C363.268 217.958 362.688 218.015 360.283 217.842L357.414 217.64L355.444 218.853C351.01 221.625 348.431 224.368 348.431 226.245C348.431 226.505 349.272 227.602 350.315 228.7C351.329 229.797 352.198 230.952 352.198 231.27C352.198 231.587 351.851 232.511 351.474 233.291C350.778 234.59 350.749 235.023 350.749 238.72V242.762L351.735 243.946C352.285 244.61 352.662 245.303 352.604 245.506C352.517 245.708 351.764 246.227 350.923 246.632C349.561 247.296 349.3 247.556 348.721 248.971C347.996 250.732 347.649 250.963 344.78 251.454C343.36 251.714 342.751 251.685 341.476 251.31L339.912 250.848L338.724 252.147C337.391 253.591 337.535 253.562 334.435 252.638C333.826 252.465 332.783 252.349 332.117 252.407C330.784 252.494 330.668 252.638 328.32 256.652C327.567 257.922 326.727 258.702 323.655 260.954L319.888 263.698L314.672 264.362C307.369 265.286 307.196 265.257 305.66 263.986C302.994 261.821 294.851 261.07 292.446 262.773C291.895 263.149 290.91 263.871 290.214 264.391C289.548 264.91 288.737 265.343 288.447 265.343C288.157 265.343 286.447 264.997 284.622 264.593C282.361 264.102 281.173 263.698 280.855 263.322C280.594 263.004 280.101 261.849 279.753 260.723C279.435 259.626 279.058 258.644 278.913 258.586C278.536 258.327 268.075 256.103 267.38 256.103C266.916 256.103 266.221 256.825 264.772 258.76C263.7 260.232 262.83 261.618 262.859 261.878C262.888 262.109 263.41 263.64 264.047 265.286C264.685 266.903 265.148 268.462 265.062 268.693C264.975 268.924 263.989 269.559 262.917 270.108L260.918 271.119H254.832C248.834 271.119 248.747 271.09 248.341 270.455C248.109 270.108 247.849 269.386 247.733 268.895C247.617 268.375 247.385 267.827 247.153 267.654C246.95 267.509 245.183 267.076 243.212 266.758L239.619 266.152L234.461 268.693C229.592 271.119 229.303 271.292 229.129 272.187C229.042 272.707 228.839 273.198 228.694 273.313C228.549 273.4 227.187 273.775 225.622 274.151C222.957 274.786 221.884 275.392 221.45 276.547C221.276 276.981 220.32 277.096 218.523 276.923ZM418.558 181.458C418.558 181.371 418.21 180.765 417.775 180.13C417.138 179.177 416.964 179.032 416.732 179.408C416.384 180.072 416.703 180.881 417.457 181.256C418.21 181.602 418.558 181.66 418.558 181.458ZM208.004 120.674C207.569 120.183 207.048 119.807 206.903 119.807C206.729 119.807 207.048 120.241 207.569 120.818C208.12 121.367 208.612 121.742 208.699 121.655C208.786 121.598 208.468 121.136 208.004 120.674ZM199.195 117.064C199.224 116.747 199.224 116.227 199.195 115.909C199.137 115.332 199.137 115.332 198.905 115.909C198.557 116.689 198.528 118.652 198.876 118.075C199.021 117.815 199.166 117.382 199.195 117.064ZM6.86778 126.074C5.44786 124.514 0.28978 117.006 0.28978 116.487C0.28978 115.967 0.492625 115.88 2.57904 115.678C5.50581 115.389 6.0564 115.534 6.8388 116.775C7.62121 117.959 7.70814 117.959 8.78033 117.151C9.24397 116.833 9.82353 116.602 10.0264 116.689C10.4321 116.862 11.2724 119.259 12.4605 123.475C12.8083 124.745 12.8662 125.409 12.6634 125.611C12.3156 125.958 9.27295 126.709 8.20077 126.709C7.7661 126.738 7.18654 126.449 6.86778 126.074ZM153.467 114.61C151.671 113.252 150.801 112.357 150.656 111.809C150.541 111.376 150.135 109.499 149.758 107.622C149.121 104.416 149.092 104.156 149.526 102.713C150.106 100.749 150.251 100.576 151.903 100.027C152.946 99.6807 153.873 98.9588 155.873 96.9952C158.017 94.8295 158.596 94.3963 159.35 94.3963C160.074 94.3963 160.422 94.1364 161.147 93.1546C161.697 92.4039 163.639 90.729 165.986 89.0253C168.159 87.4372 170.448 85.7912 171.057 85.3292C172.448 84.3185 176.273 83.5966 183.691 82.9902C186.821 82.7303 189.284 82.3838 190.501 82.0084C192.761 81.2865 193.631 81.2576 194.5 81.864C195.109 82.2972 195.167 82.4993 195.051 83.9143C194.935 85.2714 194.79 85.618 193.689 86.7441C192.993 87.4372 192.095 88.0724 191.66 88.1591C190.704 88.3901 187.343 88.8232 183.691 89.1986C180.707 89.5162 179.171 90.1515 175.809 92.4039C175.143 92.8659 173.636 93.6455 172.477 94.1942C171.289 94.7428 169.26 96.0423 167.898 97.1684C166.536 98.2657 164.769 99.6518 163.986 100.229C162.566 101.24 159.987 103.983 158.683 105.831C158.133 106.611 158.046 107.131 158.046 109.412C158.046 110.885 158.191 112.935 158.365 113.946C158.741 116.111 158.481 116.631 157.003 116.631C156.278 116.631 155.467 116.169 153.467 114.61ZM322.119 80.6224C321.771 79.9871 321.424 76.0311 321.656 75.4535C321.742 75.2225 321.945 75.0493 322.061 75.0493C322.206 75.0493 322.815 74.7028 323.423 74.2985C324.35 73.6343 324.756 73.5477 326.263 73.6632C328.205 73.7787 329.885 74.6739 329.885 75.6268C329.885 76.1466 323.916 80.7667 322.873 81.0266C322.612 81.1133 322.264 80.94 322.119 80.6224ZM243.821 80.247C243.502 80.0449 243.473 79.4962 243.734 77.1572C243.908 75.5979 243.995 74.2696 243.937 74.2119C243.908 74.183 243.589 74.2696 243.27 74.4429C242.806 74.7028 241.966 74.6161 239.59 74.0675C237.909 73.6632 236.373 73.2012 236.142 73.0279C235.417 72.4504 234.461 68.8409 234.664 67.5703C234.837 66.6174 234.78 66.3286 234.403 66.2131C234.171 66.0976 233.968 65.8666 233.968 65.6645C233.968 65.4335 233.505 64.7405 232.954 64.0763C232.374 63.4121 231.94 62.8057 231.94 62.7191C231.94 62.1993 233.186 57.7524 233.504 57.146C234.142 55.991 236.141 54.1718 236.721 54.2873C236.982 54.345 237.909 55.5289 238.75 56.9439C240.111 59.1673 240.314 59.716 240.401 61.2464C240.488 63.0945 240.633 63.2966 242.198 63.6432C242.662 63.7298 243.473 64.2496 243.995 64.7693C244.864 65.6356 244.98 65.9244 244.98 67.3682C244.98 68.2922 245.096 68.9853 245.27 68.9853C245.443 68.9853 246.052 68.6387 246.632 68.2633C248.022 67.3104 248.283 67.3393 248.979 68.5232C249.413 69.274 249.703 69.4761 250.167 69.3606C250.486 69.274 250.949 69.3606 251.21 69.5628C251.761 70.0248 253.963 74.645 253.963 75.3669C253.963 76.031 253.818 76.1177 249.471 78.1101C244.255 80.5069 244.255 80.5069 243.821 80.247ZM311.223 74.183C310.122 73.8942 309.108 73.5188 308.934 73.3456C308.76 73.1723 308.413 71.9018 308.123 70.5157C307.833 69.1008 307.514 67.5703 307.427 67.0794C307.282 66.4153 307.34 66.0399 307.746 65.6645C308.181 65.2313 308.586 65.1736 310.267 65.318L312.267 65.4912L312.064 64.5672C311.6 62.517 311.6 62.4881 313.513 62.3149C314.469 62.1994 316.063 61.7951 317.048 61.3619C318.033 60.9577 319.018 60.6112 319.25 60.6112C320.641 60.6112 321.916 64.5961 321.25 66.8484C320.844 68.1767 317.222 72.9702 315.86 74.0386C314.73 74.876 313.947 74.9049 311.223 74.183ZM322.554 63.1234C321.887 62.5747 320.554 60.3224 320.67 59.8604C320.699 59.6294 322.496 58.6187 324.64 57.5791C328.784 55.5867 330.465 55.2113 330.986 56.1931C331.305 56.7995 330.581 61.1598 330.059 61.6796C329.856 61.8817 328.465 62.3149 326.958 62.6325C325.452 62.9501 323.945 63.2678 323.626 63.3544C323.278 63.4121 322.815 63.3255 322.554 63.1234ZM192.153 55.0092C191.776 54.7204 191.342 54.6627 190.559 54.8648C189.951 54.9803 189.11 55.0958 188.676 55.0958L187.864 55.1247L187.893 53.1611C187.922 52.0927 187.777 50.2157 187.574 49.0029C187.256 47.1837 187.256 46.6928 187.574 46.3174C187.777 46.0864 188.096 45.8843 188.27 45.8843C188.415 45.8843 188.791 45.6533 189.081 45.3934C189.603 44.9602 193.051 43.863 194.008 43.863C194.5 43.863 196.007 45.8843 196.007 46.5773C196.007 46.8372 195.63 47.2415 195.196 47.5302C194.761 47.7901 194.326 48.1366 194.21 48.281C193.863 48.8008 194.355 49.6382 195.341 50.2446L196.355 50.8799L198.528 50.3312C200.093 49.9558 200.817 49.8981 201.165 50.1002C201.803 50.5045 202.788 52.9012 202.556 53.5076C202.324 54.1429 199.253 55.4712 198.47 55.2979C198.122 55.2113 197.485 54.807 197.079 54.4316L196.326 53.7386L195.514 54.576C194.645 55.5001 193.08 55.7022 192.153 55.0092ZM176.968 49.5227C175.201 48.3099 175.027 47.5302 176.331 46.8372L177.316 46.3463L176.447 46.173C175.954 46.0864 175.52 45.7977 175.491 45.5378C175.317 44.7581 176.534 42.7079 177.403 42.3325C177.809 42.1304 178.33 41.7839 178.504 41.5529C178.765 41.2063 179.229 41.3218 181.663 42.2748C184.648 43.4587 185.72 44.1806 185.43 44.9025C185.343 45.1624 185.285 46.0864 185.256 46.9816C185.256 47.8767 185.169 48.7719 185.024 49.0029C184.822 49.3206 179.866 50.5045 178.765 50.5045C178.562 50.5045 177.751 50.0713 176.968 49.5227ZM380.684 20.6754C378.771 18.6252 378.568 18.192 378.568 16.2573C378.568 14.0916 378.742 13.5429 379.467 13.5429C379.756 13.5429 380.742 13.0232 381.669 12.3879C383.61 11.0307 384.248 10.9441 384.654 11.9547C385.349 13.774 384.596 20.1845 383.581 21.1951C382.857 21.917 381.64 21.7149 380.684 20.6754Z" fill="var(--fill-0, #F8F8F8)"/>
</svg>
