<svg width="32" height="32" viewBox="0 0 32 32" fill="none" xmlns="http://www.w3.org/2000/svg">
<path d="M5.40759 17.5293C4.58559 17.63 3.89026 18.152 3.61026 18.9313C3.18226 20.1226 2.57559 22.192 2.19159 25.14C2.05892 26.1626 2.77559 27.0746 3.80359 27.1613C4.85359 27.2513 6.36226 27.3346 8.33026 27.3346C10.2983 27.3346 11.8076 27.2513 12.8583 27.162C13.8856 27.0746 14.6023 26.1626 14.4689 25.14C14.0856 22.192 13.4789 20.1226 13.0509 18.9313C12.7709 18.152 12.0756 17.6293 11.2536 17.5293C10.4596 17.4326 9.39492 17.3346 8.33026 17.3346C7.26559 17.3346 6.20092 17.4326 5.40759 17.5293Z" stroke="#161616" stroke-width="2" stroke-linecap="round" stroke-linejoin="round"/>
<path d="M20.7409 17.5293C19.9189 17.63 19.2236 18.152 18.9436 18.9313C18.5156 20.1226 17.9089 22.192 17.5249 25.14C17.3923 26.1626 18.1089 27.0746 19.1369 27.1613C20.1869 27.2513 21.6956 27.3346 23.6636 27.3346C25.6316 27.3346 27.1409 27.2513 28.1916 27.162C29.2189 27.0746 29.9356 26.1626 29.8023 25.14C29.4189 22.192 28.8123 20.1226 28.3843 18.9313C28.1043 18.152 27.4089 17.6293 26.5869 17.5293C25.7929 17.4326 24.7276 17.3346 23.6636 17.3346C22.5996 17.3346 21.5343 17.4326 20.7409 17.5293Z" stroke="#161616" stroke-width="2" stroke-linecap="round" stroke-linejoin="round"/>
<path d="M13.0743 4.86264C12.2523 4.9633 11.5569 5.4853 11.2769 6.26464C10.8489 7.45597 10.2423 9.5253 9.85826 12.4733C9.72559 13.496 10.4423 14.408 11.4703 14.4946C12.5203 14.5846 14.0289 14.668 15.9969 14.668C17.9649 14.668 19.4743 14.5846 20.5249 14.4953C21.5523 14.408 22.2689 13.496 22.1356 12.4733C21.7523 9.5253 21.1456 7.45597 20.7176 6.26464C20.4376 5.4853 19.7423 4.96264 18.9203 4.86264C18.1263 4.76597 17.0609 4.66797 15.9969 4.66797C14.9329 4.66797 13.8676 4.76597 13.0743 4.86264Z" stroke="#161616" stroke-width="2" stroke-linecap="round" stroke-linejoin="round"/>
</svg>
