<svg preserveAspectRatio="none" width="100%" height="100%" overflow="visible" style="display: block;" viewBox="0 0 50 50" fill="none" xmlns="http://www.w3.org/2000/svg">
<g id="Group 2085662822">
<circle id="Ellipse 22" cx="25" cy="25" r="24" fill="var(--fill-0, white)" stroke="var(--stroke-0, #161616)" stroke-width="2"/>
<g id="Vector 43">
<path d="M17.6035 18.2661C17.4619 16.2117 18.6099 11.555 22.6799 11.0301L22.713 10.6016H26.3323L26.3639 11.0274C28.1275 11.2403 31.6549 12.9861 31.6549 18.2661C31.6549 18.2661 30.5523 18.0716 28.9916 17.8973C29.6303 18.394 30.8866 20.3951 30.3756 22.95C30.1186 24.2353 29.5995 25.3137 28.871 26.1435L29.524 30.1887L24.6272 34.8725L19.7305 30.1887L20.3734 26.5693C19.4257 25.6972 18.7566 24.4678 18.4531 22.95C17.991 20.6398 18.9622 18.6332 19.6102 17.9224C18.9651 18.0119 18.3084 18.125 17.6035 18.2661Z" fill="var(--fill-0, white)"/>
<path d="M17.6035 18.2661C17.4616 16.208 18.614 11.5383 22.7018 11.0274M30.4911 21.3367C31.1338 21.3367 33.3562 20.608 33.3577 19.7564C33.36 18.479 32.2212 18.337 31.6549 18.2661C31.6549 18.2661 28.0337 17.6274 24.6272 17.6274C21.873 17.6274 20.0209 17.7821 17.6035 18.2661C17.0372 18.337 15.8984 18.479 15.9007 19.7564C15.9022 20.608 17.6949 21.3367 18.3376 21.3367M26.658 14.6631L26.3639 11.0274L26.3323 10.6016H22.713L22.4 14.6631M26.3639 11.0274C28.1275 11.2403 31.6549 12.9861 31.6549 18.2661M28.9916 17.8973C29.6303 18.394 30.8866 20.3951 30.3756 22.95C29.7369 26.1435 27.4805 28.0596 24.4143 28.0596C22.8055 28.0596 21.4196 27.5321 20.3734 26.5693M20.3734 26.5693C19.4257 25.6972 18.7566 24.4678 18.4531 22.95C17.991 20.6398 18.9622 18.6332 19.6102 17.9224M20.3734 26.5693L19.7305 30.1887M19.7305 30.1887C16.9627 30.5435 11.4272 32.6158 11.4272 38.0661M19.7305 30.1887L24.6272 34.8725M24.6272 34.8725V38.279M24.6272 34.8725L29.524 30.1887M28.871 26.1435L29.524 30.1887M29.524 30.1887C32.2918 30.5435 37.8272 32.6158 37.8272 38.0661" stroke="var(--stroke-0, #161616)" stroke-width="2" stroke-linecap="round"/>
</g>
</g>
</svg>
