<svg preserveAspectRatio="none" width="100%" height="100%" overflow="visible" style="display: block;" viewBox="0 0 36.6753 36.68" fill="none" xmlns="http://www.w3.org/2000/svg">
<g id="Vector">
<path d="M11.8822 11.8792L18.337 0L24.7929 11.8792C24.7929 11.8792 21.2966 10.6064 18.337 10.6064C14.8498 10.6064 11.8822 11.8792 11.8822 11.8792Z" fill="white"/>
<path d="M11.8766 24.7946L0 18.3402L11.8766 11.886C11.8766 11.886 10.6043 15.3809 10.6043 18.3402C10.6043 21.8276 11.8766 24.7946 11.8766 24.7946Z" fill="white"/>
<path d="M24.7929 24.8009L18.337 36.68L11.8822 24.8009C11.8822 24.8009 15.3774 26.0736 18.337 26.0736C21.8252 26.0736 24.7929 24.8009 24.7929 24.8009Z" fill="white"/>
<path d="M24.7987 11.8807L36.6753 18.335L24.7987 24.7892C24.7987 24.7892 26.071 21.2943 26.071 18.335C26.071 14.8476 24.7987 11.8807 24.7987 11.8807Z" fill="white"/>
</g>
</svg>
