<svg preserveAspectRatio="none" width="100%" height="100%" overflow="visible" style="display: block;" viewBox="0 0 48.5623 48" fill="none" xmlns="http://www.w3.org/2000/svg">
<g id="Group 2085663113">
<path id="Ellipse 22" d="M24.2812 1C37.15 1.00006 47.5625 11.3084 47.5625 24C47.5625 36.6916 37.15 46.9999 24.2812 47C11.4124 47 1 36.6916 1 24C1 11.3084 11.4124 1 24.2812 1Z" stroke="var(--stroke-0, white)" stroke-width="2"/>
<path id="Vector 43" d="M17.2475 17.8173C17.1039 15.7592 18.2698 11.0895 22.4054 10.5786M30.286 20.8879C30.9362 20.8879 33.1846 20.1592 33.1862 19.3076C33.1885 18.0302 32.0363 17.8882 31.4634 17.8173C31.4634 17.8173 27.7998 17.1786 24.3534 17.1786C21.5669 17.1786 19.6932 17.3333 17.2475 17.8173C16.6745 17.8882 15.5224 18.0302 15.5247 19.3076C15.5262 20.1592 17.3399 20.8879 17.9901 20.8879M26.408 14.2143L26.1104 10.5786L26.0785 10.1528H22.4167L22.1001 14.2143M26.1104 10.5786C27.8947 10.7915 31.4634 12.5373 31.4634 17.8173M28.7689 17.4485C29.4151 17.9452 30.6861 19.9463 30.1692 22.5011C29.523 25.6947 27.2402 27.6108 24.138 27.6108C22.5104 27.6108 21.1083 27.0833 20.0498 26.1205M20.0498 26.1205C19.0909 25.2483 18.4141 24.019 18.1069 22.5011C17.6395 20.191 18.6221 18.1844 19.2777 17.4736M20.0498 26.1205L19.3993 29.7399M19.3993 29.7399C16.5991 30.0947 10.9988 32.1669 10.9988 37.6173M19.3993 29.7399L24.3534 34.4237M24.3534 34.4237V37.8302M24.3534 34.4237L29.3076 29.7399M28.6469 25.6947L29.3076 29.7399M29.3076 29.7399C32.1077 30.0947 37.7081 32.1669 37.7081 37.6173" stroke="var(--stroke-0, white)" stroke-width="2" stroke-linecap="round"/>
</g>
</svg>
